<svg viewBox="0 0 601 300" xmlns="http://www.w3.org/2000/svg">
  <g transform="translate(48,76) scale(0.46)">
    <polyline points="20,305 20,20 100,200.9 180,20 180,305" fill="none"
              stroke="#FAFBFC" stroke-width="40" stroke-linejoin="miter" stroke-linecap="butt"/>
    <g fill="#FAFBFC">
      <rect x="-14" y="100" width="14" height="3"/><rect x="-14" y="160" width="14" height="3"/>
      <rect x="-14" y="220" width="14" height="3"/><rect x="-14" y="280" width="14" height="3"/>
      <rect x="200" y="70" width="12" height="3"/><rect x="200" y="130" width="12" height="3"/>
      <rect x="200" y="190" width="12" height="3"/>
    </g>
    <g fill="#E0B262">
      <rect x="-20" y="40" width="20" height="3.4"/><rect x="200" y="250" width="18" height="3.4"/>
    </g>
  </g>
  <path d="M69.499755859375 0V700H293.501220703125L430.42510986328125 80.900634765625H447.37518310546875L584.299072265625 700H808.300537109375V0H691.8497314453125V613.3242797851562H674.899658203125L538.80078125 0H338.99951171875L202.900634765625 613.3242797851562H185.9505615234375V0Z" transform="translate(186.0,170.0) scale(0.06857,-0.06857)" fill="#FAFBFC"/>
  <path d="M69.499755859375 0V700H514.7750854492188V590.8492431640625H189.6005859375V407.22540283203125H486.77508544921875V298.07464599609375H189.6005859375V109.1507568359375H520.4251098632812V0Z" transform="translate(252.2,170.0) scale(0.06857,-0.06857)" fill="#FAFBFC"/>
  <path d="M69.499755859375 0V700H298.80126953125L463.52447509765625 80.900634765625H480.47454833984375V700H598.9253540039062V0H369.62384033203125L204.900634765625 619.2743530273438H187.9505615234375V0Z" transform="translate(296.3,170.0) scale(0.06857,-0.06857)" fill="#FAFBFC"/>
  <path d="M310.0499267578125 -14Q230.099853515625 -14 168.62481689453125 14.562530517578125Q107.1497802734375 43.12506103515625 72.32476806640625 97.21255493164062Q37.499755859375 151.300048828125 37.499755859375 228.699951171875V255.12506103515625H155.9505615234375V228.699951171875Q155.9505615234375 159.7503662109375 197.83786010742188 125.62554931640625Q239.72515869140625 91.500732421875 310.0499267578125 91.500732421875Q381.37469482421875 91.500732421875 417.2370300292969 120.86306762695312Q453.099365234375 150.22540283203125 453.099365234375 195.900146484375Q453.099365234375 227.17498779296875 435.8994140625 246.48739624023438Q418.699462890625 265.7998046875 386.32452392578125 277.999755859375Q353.9495849609375 290.19970703125 308.42462158203125 300.5496826171875L278.2501220703125 307.47454833984375Q208.87493896484375 323.299560546875 158.51235961914062 347.4495849609375Q108.1497802734375 371.599609375 80.91226196289062 410.9871520996094Q53.67474365234375 450.37469482421875 53.67474365234375 513.1497802734375Q53.67474365234375 575.9248657226562 83.999755859375 620.8124084472656Q114.32476806640625 665.699951171875 169.21231079101562 689.8499755859375Q224.099853515625 714 298.0499267578125 714Q372 714 429.97503662109375 688.7624816894531Q487.9500732421875 663.5249633789062 521.2750854492188 613.7249145507812Q554.60009765625 563.9248657226562 554.60009765625 488.97479248046875V456H436.1492919921875V488.97479248046875Q436.1492919921875 531.599609375 419.1618957519531 557.7619934082031Q402.17449951171875 583.9243774414062 371.07464599609375 596.2118225097656Q339.97479248046875 608.499267578125 298.0499267578125 608.499267578125Q235.77508544921875 608.499267578125 203.9503173828125 584.0744018554688Q172.12554931640625 559.6495361328125 172.12554931640625 516.4498291015625Q172.12554931640625 487.6500244140625 186.67547607421875 468.42510986328125Q201.22540283203125 449.2001953125 229.71279907226562 436.67523193359375Q258.2001953125 424.1502685546875 301.2501220703125 414.62530517578125L331.42462158203125 407.700439453125Q402.92486572265625 392.22540283203125 456.7624816894531 367.8378601074219Q510.60009765625 343.4503173828125 541.0751342773438 303.0627746582031Q571.5501708984375 262.67523193359375 571.5501708984375 199.2001953125Q571.5501708984375 135.72515869140625 539.400146484375 87.83761596679688Q507.2501220703125 39.9500732421875 448.5375671386719 12.97503662109375Q389.82501220703125 -14 310.0499267578125 -14Z" transform="translate(348.1,170.0) scale(0.06857,-0.06857)" fill="#FAFBFC"/>
  <path d="M335.300048828125 -14Q251.22491455078125 -14 190.599853515625 16.62506103515625Q129.97479248046875 47.2501220703125 97.56228637695312 104.96267700195312Q65.1497802734375 162.67523193359375 65.1497802734375 243.02520751953125V700H185.2506103515625V239.72515869140625Q185.2506103515625 170.47552490234375 224.02545166015625 131.98812866210938Q262.80029296875 93.500732421875 335.300048828125 93.500732421875Q407.7998046875 93.500732421875 446.57464599609375 131.98812866210938Q485.3494873046875 170.47552490234375 485.3494873046875 239.72515869140625V700H605.4503173828125V243.02520751953125Q605.4503173828125 162.67523193359375 573.1253051757812 104.96267700195312Q540.80029296875 47.2501220703125 480.0877380371094 16.62506103515625Q419.37518310546875 -14 335.300048828125 -14Z" transform="translate(395.8,170.0) scale(0.06857,-0.06857)" fill="#FAFBFC"/>
  <path d="M69.499755859375 0V700H368.2501220703125Q434.07513427734375 700 483.1626281738281 677.1749877929688Q532.2501220703125 654.3499755859375 559.5126037597656 612.4374694824219Q586.7750854492188 570.5249633789062 586.7750854492188 513.1749877929688V501.52496337890625Q586.7750854492188 437.12506103515625 556.0751342773438 397.8625793457031Q525.3751831054688 358.60009765625 481.02520751953125 341.47503662109375V324.52496337890625Q520.1502685546875 322.699951171875 542.500244140625 297.9873962402344Q564.8502197265625 273.27484130859375 564.8502197265625 230.57489013671875V0H444.7493896484375V213.67474365234375Q444.7493896484375 239.07464599609375 431.37445068359375 254.42462158203125Q417.99951171875 269.77459716796875 387.9495849609375 269.77459716796875H189.6005859375V0ZM189.6005859375 378.92535400390625H355.6500244140625Q408.07464599609375 378.92535400390625 437.37445068359375 406.3502197265625Q466.67425537109375 433.77508544921875 466.67425537109375 480.32476806640625V489.4498291015625Q466.67425537109375 535.99951171875 437.9619445800781 563.4243774414062Q409.2496337890625 590.8492431640625 355.6500244140625 590.8492431640625H189.6005859375Z" transform="translate(447.8,170.0) scale(0.06857,-0.06857)" fill="#FAFBFC"/>
  <path d="M19.7498779296875 0 211.62432861328125 700H421.32574462890625L613.2001953125 0H489.27435302734375L447.42462158203125 159.599609375H185.52545166015625L143.67572021484375 0ZM214.2506103515625 270.400390625H418.699462890625L324.9500732421875 624.8744506835938H308Z" transform="translate(497.2,170.0) scale(0.06857,-0.06857)" fill="#FAFBFC"/>
  <line x1="186.0" y1="194.0" x2="540.6" y2="194.0" stroke="#FAFBFC" stroke-width="2"/>
  <rect x="251.4" y="194.0" width="1.6" height="8" fill="#FAFBFC"/>
  <rect x="295.5" y="194.0" width="1.6" height="8" fill="#FAFBFC"/>
  <rect x="347.3" y="194.0" width="1.6" height="8" fill="#FAFBFC"/>
  <rect x="395.0" y="194.0" width="1.6" height="8" fill="#FAFBFC"/>
  <rect x="447.0" y="194.0" width="1.6" height="8" fill="#FAFBFC"/>
  <rect x="496.4" y="194.0" width="1.6" height="8" fill="#FAFBFC"/>
  <rect x="403.6" y="194.0" width="3" height="15" fill="#E0B262"/>
  <text x="187" y="252" font-size="11" letter-spacing="3" font-family="'Space Grotesk', ui-sans-serif, system-ui, sans-serif" fill="#9FB0B6">MEASURE&#160;TWICE&#160;&#183;&#160;RUN&#160;ONCE</text>
</svg>
